<?xml version="1.0" standalone="no"?>
<!DOCTYPE svg PUBLIC "-//W3C//DTD SVG 20010904//EN"
 "http://www.w3.org/TR/2001/REC-SVG-20010904/DTD/svg10.dtd">
<svg version="1.0" xmlns="http://www.w3.org/2000/svg"
 width="1053.000000pt" height="1053.000000pt" viewBox="0 0 1053.000000 1053.000000"
 preserveAspectRatio="xMidYMid meet">
<metadata>
Created by potrace 1.14, written by Peter Selinger 2001-2017
</metadata>
<g transform="translate(0.000000,1053.000000) scale(0.100000,-0.100000)"
fill="#000000" stroke="none">
<path d="M4939 7575 c-2 -1 -49 -6 -104 -9 -55 -4 -116 -9 -135 -11 -19 -2
-64 -7 -99 -10 -60 -6 -99 -11 -161 -20 -14 -2 -47 -6 -75 -10 -27 -3 -75 -10
-105 -16 -30 -5 -68 -11 -85 -14 -16 -3 -41 -8 -55 -10 -14 -3 -38 -8 -55 -10
-16 -3 -41 -8 -55 -10 -14 -3 -37 -8 -52 -10 -25 -5 -315 -71 -348 -79 -8 -3
-36 -9 -62 -15 -270 -62 -917 -275 -1268 -419 -47 -19 -110 -44 -140 -57 -557
-226 -1199 -549 -1500 -753 -377 -257 -572 -494 -625 -762 -15 -75 -13 -281 4
-322 6 -16 9 -28 7 -28 -9 0 46 -138 76 -190 87 -155 243 -309 468 -461 52
-35 97 -67 98 -71 2 -5 8 -8 13 -8 5 0 28 -12 52 -27 57 -36 147 -88 237 -136
41 -21 80 -43 85 -47 14 -10 353 -180 440 -220 453 -208 948 -392 1410 -525
288 -82 772 -195 945 -220 24 -4 47 -8 50 -10 3 -1 25 -6 50 -9 25 -3 56 -8
70 -11 13 -2 40 -7 60 -10 20 -3 45 -7 56 -9 11 -2 47 -7 79 -11 33 -4 67 -9
76 -10 9 -2 40 -6 70 -10 30 -3 70 -8 89 -10 39 -5 101 -11 205 -20 39 -4 88
-8 110 -10 189 -17 693 -23 910 -11 137 7 259 16 305 21 19 2 69 7 110 10 41
3 86 8 100 10 14 2 54 7 90 10 36 4 73 9 82 11 10 1 82 12 160 23 79 12 154
23 168 26 14 3 63 12 110 21 47 9 94 18 105 20 11 2 31 6 45 9 50 10 58 11
200 44 47 11 96 22 110 25 190 36 920 261 1077 332 17 8 34 14 38 14 7 0 306
123 387 160 26 11 49 21 50 20 9 -1 411 202 551 279 749 411 1027 641 1133
936 27 75 29 90 28 230 0 158 -8 197 -72 335 -28 62 -115 193 -160 242 -76 83
-89 96 -157 158 -190 172 -473 357 -870 567 -867 458 -1675 770 -2410 929
-103 23 -105 23 -165 34 -30 6 -64 12 -76 14 -37 7 -268 45 -314 51 -25 3 -56
8 -70 10 -14 2 -52 6 -84 10 -33 3 -73 8 -90 10 -50 7 -223 22 -353 31 -77 6
-760 14 -764 9z"/>
</g>
</svg>
