<?xml version="1.0" standalone="no"?>
<!DOCTYPE svg PUBLIC "-//W3C//DTD SVG 20010904//EN"
 "http://www.w3.org/TR/2001/REC-SVG-20010904/DTD/svg10.dtd">
<svg version="1.0" xmlns="http://www.w3.org/2000/svg"
 width="512.000000pt" height="512.000000pt" viewBox="0 0 512.000000 512.000000"
 preserveAspectRatio="xMidYMid meet">
<metadata>
Created by potrace 1.14, written by Peter Selinger 2001-2017
</metadata>
<g transform="translate(0.000000,512.000000) scale(0.100000,-0.100000)"
fill="#000000" stroke="none">
<path d="M2370 3534 c-121 -9 -322 -36 -440 -60 -543 -108 -1115 -365 -1488
-667 l-74 -60 35 -36 c112 -116 98 -279 -31 -378 l-42 -32 52 -42 c157 -125
464 -288 739 -393 271 -103 646 -199 934 -240 626 -88 1203 -17 1820 225 259
101 568 261 777 401 l87 58 -44 41 c-58 54 -78 108 -73 198 3 58 9 77 34 113
16 23 45 53 64 66 19 13 36 26 38 30 3 9 -243 172 -368 245 -490 283 -969 449
-1471 512 -123 15 -444 26 -549 19z m431 -174 c58 -21 126 -66 139 -89 4 -9
10 -54 11 -101 l4 -85 -107 -3 -106 -3 -8 57 c-12 78 -40 99 -132 98 -65 0
-99 -11 -134 -42 -17 -14 -18 -58 -18 -664 l0 -648 33 -21 c27 -17 46 -20 129
-17 91 3 99 5 125 31 l28 27 3 262 3 261 -116 -5 c-63 -3 -118 -2 -120 3 -3 4
-2 39 1 78 l7 71 204 0 205 0 -4 -362 c-4 -349 -5 -365 -25 -404 -29 -54 -83
-101 -134 -114 -26 -7 -107 -10 -213 -8 -168 3 -172 3 -225 33 -32 18 -64 46
-80 69 l-26 40 -3 717 -2 718 30 35 c55 62 141 82 357 85 100 1 132 -3 174
-19z m-698 -497 c4 -273 7 -642 7 -821 l0 -324 -42 7 c-24 3 -66 13 -94 21
l-51 14 -6 252 c-4 139 -9 447 -12 683 -3 237 -8 471 -11 521 l-5 92 43 16
c40 15 113 32 149 35 14 1 16 -51 22 -496z m1152 446 c159 -33 386 -99 448
-130 51 -25 96 -66 108 -96 7 -20 -17 -1079 -27 -1129 -3 -16 -22 -26 -90 -47
-48 -15 -88 -26 -90 -24 -2 1 2 239 8 527 6 289 8 538 4 553 -7 28 -85 122
-94 113 -4 -5 -31 -965 -32 -1153 l0 -82 -76 -16 c-41 -10 -77 -15 -80 -12 -3
2 -1 283 5 623 7 514 7 623 -4 645 -15 27 -84 93 -91 86 -3 -2 -11 -313 -19
-692 -7 -378 -15 -689 -17 -691 -5 -5 -145 -34 -164 -34 -12 0 -14 111 -14
793 0 437 3 797 7 800 8 8 30 5 218 -34z m-1558 -127 c49 -26 80 -62 92 -111
13 -51 25 -1281 12 -1281 -5 0 -50 9 -99 21 l-90 20 -6 252 c-4 139 -10 402
-14 585 l-7 334 -28 24 c-16 13 -41 24 -56 24 -28 0 -120 -27 -132 -39 -4 -3
-1 -253 7 -556 7 -302 12 -551 10 -552 -1 -1 -42 13 -91 31 l-90 34 -2 43 c-3
49 -33 1012 -33 1046 0 17 15 27 78 54 42 18 122 47 177 66 118 39 201 41 272
5z m-617 -211 c0 -38 3 -76 6 -85 4 -11 -14 -24 -68 -49 -89 -41 -203 -110
-240 -145 -28 -26 -34 -54 -22 -99 6 -22 11 -23 115 -23 l109 0 0 -65 0 -65
-110 0 -110 0 0 -58 c0 -44 5 -63 18 -75 29 -26 181 -94 257 -115 l70 -19 8
-83 c4 -46 5 -85 3 -87 -11 -11 -436 174 -495 216 l-28 21 -7 192 c-4 106 -9
218 -12 249 l-6 55 91 65 c84 59 395 239 413 239 4 0 8 -31 8 -69z m3203 -28
l170 -88 -7 -190 c-3 -104 -9 -254 -13 -331 l-6 -142 -93 -40 -93 -40 -3 133
-3 133 -97 -41 -98 -41 0 -133 c0 -73 -1 -133 -3 -133 -2 0 -41 -14 -87 -30
l-83 -31 6 263 c7 295 23 429 66 548 40 108 133 250 164 250 6 0 86 -39 180
-87z"/>
<path d="M4121 2808 c-33 -77 -81 -317 -69 -346 1 -5 47 7 100 27 l96 36 6 40
c3 22 6 82 7 134 l2 93 -53 29 c-29 16 -57 29 -62 29 -5 0 -17 -19 -27 -42z"/>
</g>
</svg>
